<svg width="24" height="24" viewBox="0 0 24 24" fill="none" xmlns="http://www.w3.org/2000/svg">
<path d="M5.24899 3.75C5.24899 3.55109 5.16998 3.36032 5.02932 3.21967C4.88867 3.07902 4.69791 3 4.49899 3C4.30008 3 4.10932 3.07902 3.96866 3.21967C3.82801 3.36032 3.74899 3.55109 3.74899 3.75V16.9395L2.02999 15.219C1.88916 15.0782 1.69816 14.9991 1.49899 14.9991C1.29983 14.9991 1.10882 15.0782 0.967994 15.219C0.827164 15.3598 0.748047 15.5508 0.748047 15.75C0.748047 15.9492 0.827164 16.1402 0.967994 16.281L3.96799 19.2795L3.97849 19.29C4.11931 19.4273 4.30868 19.5034 4.50535 19.5017C4.70202 19.5 4.89005 19.4207 5.02849 19.281L8.02849 16.281C8.09823 16.2114 8.15356 16.1287 8.19134 16.0377C8.22911 15.9466 8.24859 15.8491 8.24866 15.7505C8.24873 15.652 8.22939 15.5544 8.19174 15.4633C8.15409 15.3722 8.09888 15.2895 8.02924 15.2197C7.95961 15.15 7.87692 15.0947 7.78591 15.0569C7.69489 15.0191 7.59732 14.9997 7.49877 14.9996C7.40023 14.9995 7.30263 15.0189 7.21156 15.0565C7.12049 15.0941 7.03772 15.1494 6.96799 15.219L5.24899 16.9395V3.75ZM10.499 5.25C10.499 5.05109 10.578 4.86032 10.7187 4.71967C10.8593 4.57902 11.0501 4.5 11.249 4.5H21.749C21.9479 4.5 22.1387 4.57902 22.2793 4.71967C22.42 4.86032 22.499 5.05109 22.499 5.25C22.499 5.44891 22.42 5.63968 22.2793 5.78033C22.1387 5.92098 21.9479 6 21.749 6H11.249C11.0501 6 10.8593 5.92098 10.7187 5.78033C10.578 5.63968 10.499 5.44891 10.499 5.25ZM11.249 9C11.0501 9 10.8593 9.07902 10.7187 9.21967C10.578 9.36032 10.499 9.55109 10.499 9.75C10.499 9.94891 10.578 10.1397 10.7187 10.2803C10.8593 10.421 11.0501 10.5 11.249 10.5H18.749C18.9479 10.5 19.1387 10.421 19.2793 10.2803C19.42 10.1397 19.499 9.94891 19.499 9.75C19.499 9.55109 19.42 9.36032 19.2793 9.21967C19.1387 9.07902 18.9479 9 18.749 9H11.249ZM11.249 13.5C11.0501 13.5 10.8593 13.579 10.7187 13.7197C10.578 13.8603 10.499 14.0511 10.499 14.25C10.499 14.4489 10.578 14.6397 10.7187 14.7803C10.8593 14.921 11.0501 15 11.249 15H15.749C15.9479 15 16.1387 14.921 16.2793 14.7803C16.42 14.6397 16.499 14.4489 16.499 14.25C16.499 14.0511 16.42 13.8603 16.2793 13.7197C16.1387 13.579 15.9479 13.5 15.749 13.5H11.249ZM11.249 18C11.0501 18 10.8593 18.079 10.7187 18.2197C10.578 18.3603 10.499 18.5511 10.499 18.75C10.499 18.9489 10.578 19.1397 10.7187 19.2803C10.8593 19.421 11.0501 19.5 11.249 19.5H12.749C12.9479 19.5 13.1387 19.421 13.2793 19.2803C13.42 19.1397 13.499 18.9489 13.499 18.75C13.499 18.5511 13.42 18.3603 13.2793 18.2197C13.1387 18.079 12.9479 18 12.749 18H11.249Z" fill="#990099"/>
<path d="M5.24899 3.75C5.24899 3.55109 5.16998 3.36032 5.02932 3.21967C4.88867 3.07902 4.69791 3 4.49899 3C4.30008 3 4.10932 3.07902 3.96866 3.21967C3.82801 3.36032 3.74899 3.55109 3.74899 3.75V16.9395L2.02999 15.219C1.88916 15.0782 1.69816 14.9991 1.49899 14.9991C1.29983 14.9991 1.10882 15.0782 0.967994 15.219C0.827164 15.3598 0.748047 15.5508 0.748047 15.75C0.748047 15.9492 0.827164 16.1402 0.967994 16.281L3.96799 19.2795L3.97849 19.29C4.11931 19.4273 4.30868 19.5034 4.50535 19.5017C4.70202 19.5 4.89005 19.4207 5.02849 19.281L8.02849 16.281C8.09823 16.2114 8.15356 16.1287 8.19134 16.0377C8.22911 15.9466 8.24859 15.8491 8.24866 15.7505C8.24873 15.652 8.22939 15.5544 8.19174 15.4633C8.15409 15.3722 8.09888 15.2895 8.02924 15.2197C7.95961 15.15 7.87692 15.0947 7.78591 15.0569C7.69489 15.0191 7.59732 14.9997 7.49877 14.9996C7.40023 14.9995 7.30263 15.0189 7.21156 15.0565C7.12049 15.0941 7.03772 15.1494 6.96799 15.219L5.24899 16.9395V3.75ZM10.499 5.25C10.499 5.05109 10.578 4.86032 10.7187 4.71967C10.8593 4.57902 11.0501 4.5 11.249 4.5H21.749C21.9479 4.5 22.1387 4.57902 22.2793 4.71967C22.42 4.86032 22.499 5.05109 22.499 5.25C22.499 5.44891 22.42 5.63968 22.2793 5.78033C22.1387 5.92098 21.9479 6 21.749 6H11.249C11.0501 6 10.8593 5.92098 10.7187 5.78033C10.578 5.63968 10.499 5.44891 10.499 5.25ZM11.249 9C11.0501 9 10.8593 9.07902 10.7187 9.21967C10.578 9.36032 10.499 9.55109 10.499 9.75C10.499 9.94891 10.578 10.1397 10.7187 10.2803C10.8593 10.421 11.0501 10.5 11.249 10.5H18.749C18.9479 10.5 19.1387 10.421 19.2793 10.2803C19.42 10.1397 19.499 9.94891 19.499 9.75C19.499 9.55109 19.42 9.36032 19.2793 9.21967C19.1387 9.07902 18.9479 9 18.749 9H11.249ZM11.249 13.5C11.0501 13.5 10.8593 13.579 10.7187 13.7197C10.578 13.8603 10.499 14.0511 10.499 14.25C10.499 14.4489 10.578 14.6397 10.7187 14.7803C10.8593 14.921 11.0501 15 11.249 15H15.749C15.9479 15 16.1387 14.921 16.2793 14.7803C16.42 14.6397 16.499 14.4489 16.499 14.25C16.499 14.0511 16.42 13.8603 16.2793 13.7197C16.1387 13.579 15.9479 13.5 15.749 13.5H11.249ZM11.249 18C11.0501 18 10.8593 18.079 10.7187 18.2197C10.578 18.3603 10.499 18.5511 10.499 18.75C10.499 18.9489 10.578 19.1397 10.7187 19.2803C10.8593 19.421 11.0501 19.5 11.249 19.5H12.749C12.9479 19.5 13.1387 19.421 13.2793 19.2803C13.42 19.1397 13.499 18.9489 13.499 18.75C13.499 18.5511 13.42 18.3603 13.2793 18.2197C13.1387 18.079 12.9479 18 12.749 18H11.249Z" fill="black" fill-opacity="0.2"/>
</svg>
