<svg width="40" height="40" viewBox="0 0 40 40" fill="none" xmlns="http://www.w3.org/2000/svg">
<rect y="0.000610352" width="40" height="39.9987" rx="4" fill="url(#paint0_linear_915_8044)" fill-opacity="0.12"/>
<path d="M20.0006 8.00061C13.3822 8.00061 8 13.3841 8 20C8 26.6159 13.3822 31.9994 20.0006 31.9994C26.6165 31.9994 32 26.6159 32 20C32 13.3841 26.6165 8.00061 20.0006 8.00061ZM30.2351 20C30.2351 22.3411 29.4401 24.4998 28.1152 26.2247C27.7402 25.9322 27.3415 25.141 27.7165 24.321C28.0952 23.4961 28.1939 21.5862 28.1065 20.8424C28.024 20.1 27.6377 18.3113 26.589 18.2938C25.5416 18.2788 24.8229 17.9326 24.2004 16.6902C22.9092 14.1053 26.624 13.6091 25.3328 12.1791C24.9716 11.7767 23.1042 13.8316 22.8305 11.0929C22.813 10.8967 22.9992 10.603 23.2505 10.298C27.3052 11.6604 30.2351 15.494 30.2351 20ZM18.5944 9.86676C18.3495 10.3442 17.7032 10.538 17.3108 10.8967C16.4558 11.6704 16.0883 11.5629 15.6284 12.3054C15.1646 13.0478 13.6697 14.1165 13.6697 14.654C13.6697 15.1915 14.4247 15.824 14.8021 15.7015C15.1796 15.5765 16.1758 15.584 16.7608 15.789C17.347 15.9964 21.653 16.2039 20.2806 19.8437C19.8456 21.0012 17.9395 20.8062 17.432 22.7223C17.3558 23.0036 17.092 24.2048 17.0758 24.5972C17.0445 25.2047 17.5058 27.4946 16.9195 27.4946C16.3308 27.4946 14.7471 25.446 14.7471 25.0747C14.7471 24.7035 14.3372 23.4023 14.3372 22.2874C14.3372 21.1737 12.4398 21.1912 12.4398 19.71C12.4398 18.3751 13.4685 17.7101 13.2372 17.0689C13.011 16.4314 11.2036 16.4102 10.4499 16.3314C11.1089 14.6263 12.2113 13.1281 13.6431 11.9916C15.0749 10.8551 16.7842 10.1216 18.5944 9.86676ZM16.7808 29.712C17.3958 29.387 17.4583 28.967 18.0157 28.9458C18.6532 28.917 19.1719 28.697 19.8906 28.5383C20.5281 28.3995 21.6693 27.7521 22.673 27.6696C23.5204 27.6008 25.1916 27.7133 25.6416 28.5308C24.3513 29.3876 22.8828 29.9393 21.3475 30.144C19.8122 30.3486 18.2505 30.2009 16.7808 29.712Z" fill="#990099"/>
<path d="M20.0006 8.00061C13.3822 8.00061 8 13.3841 8 20C8 26.6159 13.3822 31.9994 20.0006 31.9994C26.6165 31.9994 32 26.6159 32 20C32 13.3841 26.6165 8.00061 20.0006 8.00061ZM30.2351 20C30.2351 22.3411 29.4401 24.4998 28.1152 26.2247C27.7402 25.9322 27.3415 25.141 27.7165 24.321C28.0952 23.4961 28.1939 21.5862 28.1065 20.8424C28.024 20.1 27.6377 18.3113 26.589 18.2938C25.5416 18.2788 24.8229 17.9326 24.2004 16.6902C22.9092 14.1053 26.624 13.6091 25.3328 12.1791C24.9716 11.7767 23.1042 13.8316 22.8305 11.0929C22.813 10.8967 22.9992 10.603 23.2505 10.298C27.3052 11.6604 30.2351 15.494 30.2351 20ZM18.5944 9.86676C18.3495 10.3442 17.7032 10.538 17.3108 10.8967C16.4558 11.6704 16.0883 11.5629 15.6284 12.3054C15.1646 13.0478 13.6697 14.1165 13.6697 14.654C13.6697 15.1915 14.4247 15.824 14.8021 15.7015C15.1796 15.5765 16.1758 15.584 16.7608 15.789C17.347 15.9964 21.653 16.2039 20.2806 19.8437C19.8456 21.0012 17.9395 20.8062 17.432 22.7223C17.3558 23.0036 17.092 24.2048 17.0758 24.5972C17.0445 25.2047 17.5058 27.4946 16.9195 27.4946C16.3308 27.4946 14.7471 25.446 14.7471 25.0747C14.7471 24.7035 14.3372 23.4023 14.3372 22.2874C14.3372 21.1737 12.4398 21.1912 12.4398 19.71C12.4398 18.3751 13.4685 17.7101 13.2372 17.0689C13.011 16.4314 11.2036 16.4102 10.4499 16.3314C11.1089 14.6263 12.2113 13.1281 13.6431 11.9916C15.0749 10.8551 16.7842 10.1216 18.5944 9.86676ZM16.7808 29.712C17.3958 29.387 17.4583 28.967 18.0157 28.9458C18.6532 28.917 19.1719 28.697 19.8906 28.5383C20.5281 28.3995 21.6693 27.7521 22.673 27.6696C23.5204 27.6008 25.1916 27.7133 25.6416 28.5308C24.3513 29.3876 22.8828 29.9393 21.3475 30.144C19.8122 30.3486 18.2505 30.2009 16.7808 29.712Z" fill="black" fill-opacity="0.2"/>
<defs>
<linearGradient id="paint0_linear_915_8044" x1="-1.49012e-07" y1="20" x2="39.9995" y2="-0.000390628" gradientUnits="userSpaceOnUse">
<stop stop-color="#990099"/>
<stop offset="1" stop-color="#0033CC"/>
</linearGradient>
</defs>
</svg>
