<svg width="33" height="32" viewBox="0 0 33 32" fill="none" xmlns="http://www.w3.org/2000/svg">
<path fill-rule="evenodd" clip-rule="evenodd" d="M12.2393 13.1107H8.70357V23.7286H12.2393V13.1107ZM12.4643 9.83214C12.4536 8.79286 11.7036 8 10.4929 8C9.29286 8 8.5 8.79286 8.5 9.83214C8.5 10.85 9.26072 11.6643 10.45 11.6643H10.4714C11.7036 11.6643 12.475 10.85 12.4643 9.83214ZM17.7143 14.6199V13.1107H14.1893C14.1893 13.1107 14.2322 14.1071 14.1893 23.7286H17.7143V17.8036C17.7143 17.4822 17.7464 17.1714 17.8322 16.9357C18.0893 16.3036 18.6679 15.65 19.6429 15.65C20.9179 15.65 21.4322 16.625 21.4322 18.05V23.7286H24.9572V17.6429C24.9572 14.3857 23.2214 12.8643 20.8964 12.8643C19.0185 12.8643 18.1794 13.8928 17.7143 14.6199Z" fill="#A6A6A6"/>
</svg>
