<svg width="151" height="50" viewBox="0 0 151 50" fill="none" xmlns="http://www.w3.org/2000/svg">
<path d="M28.375 14.131L28.347 14.103L25.477 11.233L26.536 7.28595L26.543 7.26095L26.579 7.12495L26.387 7.07395L22.467 6.02395L21.412 2.08595L21.406 2.06495V2.04695L21.37 1.91095L21.217 1.95195L21.179 1.96195L17.259 3.01195L14.367 0.119953L14.249 0.00195312L14.109 0.141953L11.239 3.01195L7.3 1.95495L7.279 1.94895H7.261L7.125 1.91295L7.084 2.06695L7.074 2.10495L6.024 6.02495L2.073 7.08395L2.044 7.08595L1.908 7.12195L1.959 7.31395L3.009 11.234L0.127998 14.116L0.112999 14.131L0 14.244L0.112 14.356L0.139999 14.384L3.01 17.254L1.951 21.205L1.944 21.23L1.908 21.366L2.1 21.417L6.02 22.467L7.075 26.405L7.081 26.426V26.444L7.117 26.58L7.271 26.539L7.309 26.529L11.229 25.479L14.121 28.371L14.239 28.489L14.379 28.349L17.249 25.479L21.187 26.534L21.208 26.54H21.226L21.362 26.576L21.403 26.422L21.413 26.384L22.463 22.464L26.414 21.405L26.44 21.398L26.576 21.362L26.525 21.17L25.475 17.25L28.357 14.368L28.372 14.353L28.484 14.241L28.375 14.131ZM18.487 23.243L16.552 21.186L17.704 20.521L19.172 23.063L18.487 23.243ZM18.914 23.419L18.779 23.554L18.705 23.475L18.914 23.419ZM14.524 22.352L16.3 21.326L18.177 23.326L16.831 23.687L14.524 22.352ZM16.45 23.786L14.384 24.34V22.596L16.45 23.786ZM18.397 23.555L18.58 23.755L17.98 24.355L17.174 23.89L18.397 23.555ZM16.354 20.969L12.742 17.123L12.788 17.044H15.538L15.316 17.429L15.85 17.304L17.564 20.272L16.354 20.969ZM15.7 16.765H12.788L11.332 14.243L11.494 13.963L12.788 11.722H15.7L15.715 11.749L17.156 14.249L17.141 14.276L15.7 16.765ZM12.4 17.165L10.686 20.133L9.477 19.433L11 14.386H11.091L12.45 16.741L12.465 16.768H12.021L12.4 17.165ZM11.04 20.665L13.968 22.356L12.228 23.356L11.04 20.665ZM12.121 23.813L12.043 23.792L12.098 23.76L12.121 23.813ZM11.984 23.502L11.659 23.689L9.322 23.063L10.722 20.639L11.984 23.502ZM11.315 23.888L10.509 24.353L9.578 23.422L11.315 23.888ZM6.769 7.87195L7.081 7.90595V9.94595L5.569 9.07295L6.769 7.87195ZM5.611 8.63295L5.842 7.77195L6.411 7.83395L5.611 8.63295ZM7.081 7.62395L7.024 7.61795L7.081 7.56095V7.62395ZM6.94 10.186L4.874 11.386L5.428 9.31995L6.94 10.186ZM4.53 11.578L3.546 12.146L3.323 11.315L5.068 9.56995L4.53 11.578ZM3.369 12.572L3.569 13.306L1.095 13.886L3.369 12.572ZM3.639 13.578L3.779 14.1H1.412L3.639 13.578ZM3.962 14.783L4.427 16.52L3.621 16.055L3.962 14.783ZM3.913 13.513L4.018 13.488L3.962 13.697L3.913 13.513ZM4.53 16.903L4.682 17.471L4.236 18.086L3.323 17.173L3.546 16.342L4.53 16.903ZM5.068 18.911L4.437 18.28L4.775 17.818L5.068 18.911ZM4.874 17.102L4.929 17.134L4.895 17.18L4.874 17.102ZM4.274 18.51L5.115 19.351L2.592 20.808L4.274 18.51ZM4.993 17.528L5.178 17.275L6.945 18.295L5.432 19.168L4.993 17.528ZM5.101 16.906L4.776 16.718L4.145 14.386H6.945L5.101 16.906ZM4.101 13.181L3.84 13.242L3.621 12.426L4.427 11.961L4.101 13.181ZM4.772 11.763L7.081 10.43V12.486L4.411 13.112L4.772 11.763ZM10 5.24395L11.935 7.30495L10.783 7.96995L9.315 5.42795L10 5.24395ZM9.573 5.06795L9.708 4.93295L9.782 5.01195L9.573 5.06795ZM13.963 6.13495L12.186 7.16095L10.309 5.16095L11.655 4.79995L13.963 6.13495ZM12.037 4.69895L14.103 4.14495V5.89095L12.037 4.69895ZM10.09 4.92995L9.907 4.72995L10.507 4.12995L11.313 4.59495L10.09 4.92995ZM12.133 7.51595L15.745 11.362L15.699 11.441H12.95L13.172 11.056L12.638 11.181L10.924 8.21295L12.133 7.51595ZM12.545 11.582L11.17 13.963L10.948 13.578L10.789 14.103H7.362V12.703L12.5 11.502L12.545 11.582ZM8.345 22.193L7.36 21.208V18.541L9.138 19.567L8.345 22.193ZM8.478 22.724L8.631 22.877L8.447 22.828L8.478 22.724ZM7.36 18.218V14.386H10.7L9.218 19.293L7.36 18.218ZM7.36 21.606L8.253 22.499L8.176 22.755L7.36 22.536V21.606ZM8.366 23.097L8.888 23.237L7.706 25.286L8.366 23.097ZM8.566 22.419L9.383 19.713L10.535 20.378L9.067 22.92L8.566 22.419ZM16.107 11.866L16.024 11.722H16.468L16.092 11.322L17.806 8.35395L19.015 9.05395L17.49 14.103H17.4L16.107 11.866ZM17.453 7.82495L14.525 6.13395L16.265 5.13395L17.453 7.82495ZM16.372 4.67695L16.45 4.69795L16.395 4.72995L16.372 4.67695ZM16.509 4.98795L16.834 4.80095L19.171 5.42695L17.771 7.85095L16.509 4.98795ZM17.178 4.60195L17.984 4.13695L18.915 5.06795L17.178 4.60195ZM17.947 8.10995L19.415 5.56795L19.915 6.06795L19.1 8.77495L17.947 8.10995ZM19.855 5.60995L20.039 5.65895L20.008 5.75895L19.855 5.60995ZM19.598 5.24995L20.781 3.20095L20.12 5.38995L19.598 5.24995ZM19.355 5.10995L18.236 3.99095L20.883 2.46295L19.355 5.10995ZM20.273 2.49095L18.03 3.78595L17.483 3.23895L20.273 2.49095ZM17.779 3.93095L16.795 4.49895L16.227 4.34695L15.927 3.65695L17.174 3.32295L17.779 3.93095ZM16.941 3.09295L15.808 3.39295L14.675 0.823954L16.941 3.09295ZM15.879 4.25395L14.787 3.96095L15.649 3.72995L15.879 4.25395ZM14.385 0.864952L15.534 3.47095L14.385 3.77895V0.864952ZM14.385 4.14495L16.025 4.58395L16.152 4.87095L14.385 5.89095V4.14495ZM14.245 6.29695L17.564 8.21295L15.893 11.108L12.384 7.37095L14.245 6.29695ZM14.105 0.537952V3.77895L11.549 3.09395L14.105 0.537952ZM11.319 3.32395L13.702 3.96295L11.694 4.50095L10.71 3.93295L11.319 3.32395ZM11 3.23895L10.453 3.78595L8.211 2.49195L11 3.23895ZM10.247 3.99195L9.709 4.52895L7.97 2.67695L10.247 3.99195ZM9.511 4.72795L9.129 5.10995L7.95 3.06095L9.511 4.72795ZM7.357 2.60395L8.885 5.25095L7.357 5.66095V2.60395ZM7.357 5.95095L8.628 5.60995L7.362 6.88595L7.357 5.95095ZM7.357 7.27895L9.068 5.56795L10.468 7.99195L7.357 7.65395V7.27895ZM7.357 7.93595L10.285 8.25395L7.362 9.94595L7.357 7.93595ZM7.357 10.27L10.676 8.35395L12.347 11.249L7.356 12.42L7.357 10.27ZM7.076 3.14695V5.73595L6.329 5.93595L7.076 3.14695ZM6.245 6.24695L7.076 6.02395V7.15995L6.661 7.57495L5.911 7.49395L6.245 6.24695ZM5.932 6.33095L5.632 7.46395L2.841 7.16395L5.932 6.33095ZM5.555 7.73795L5.251 8.88595L2.728 7.42895L5.555 7.73795ZM2.3 7.51195L5.107 9.13295L3.236 11.004L2.3 7.51195ZM3.09 11.547L3.29 12.294L1.052 13.586L3.09 11.547ZM3.775 14.384L3.366 15.912L0.723 14.386L3.775 14.384ZM1.048 14.899L3.29 16.193L3.09 16.94L1.048 14.899ZM3.239 17.486L4.068 18.315L2.41 20.578L3.239 17.486ZM2.439 21.221L5.246 19.6L5.931 22.156L2.439 21.221ZM7.076 25.343L6.329 22.554L7.076 22.754V25.343ZM7.076 22.463L6.245 22.24L5.606 19.856L7.076 21.326V22.463ZM7.076 20.929L5.564 19.417L7.076 18.544V20.929ZM7.076 18.057L5.336 17.057L7.076 14.68V18.057ZM7.076 14.105H4.145L4.328 13.421L7.08 12.775L7.076 14.105ZM7.357 22.828L8.091 23.028L7.357 25.46V22.828ZM9.128 23.378L10.247 24.497L7.6 26.023L9.128 23.378ZM8.21 25.997L10.452 24.703L10.999 25.25L8.21 25.997ZM10.704 24.557L11.688 23.989L12.256 24.141L12.556 24.831L11.309 25.165L10.704 24.557ZM11.542 25.395L12.68 25.086L13.813 27.655L11.542 25.395ZM12.604 24.234L13.696 24.527L12.835 24.758L12.604 24.234ZM14.1 27.622L12.954 25.016L14.103 24.708L14.1 27.622ZM14.1 24.342L12.46 23.903L12.333 23.616L14.1 22.596V24.342ZM14.24 22.19L10.921 20.273L12.6 17.379L16.1 21.116L14.24 22.19ZM14.38 27.949V24.708L16.936 25.393L14.38 27.949ZM17.166 25.163L14.783 24.524L16.791 23.986L17.775 24.554L17.166 25.163ZM17.479 25.247L18.026 24.7L20.268 25.994L17.479 25.247ZM18.232 24.494L18.769 23.956L20.508 25.808L18.232 24.494ZM18.968 23.758L19.35 23.376L20.533 25.425L18.968 23.758ZM21.126 25.886L19.6 23.236L21.128 22.827L21.126 25.886ZM21.126 22.539L19.855 22.88L21.126 21.609V22.539ZM21.126 21.211L19.415 22.922L18.015 20.498L21.126 20.836V21.211ZM21.126 20.554L18.2 20.232L21.128 18.541L21.126 20.554ZM21.126 18.22L17.807 20.136L16.136 17.241L21.126 16.07V18.22ZM21.126 15.783L15.988 16.986L15.942 16.907L17.233 14.67L17.316 14.526L17.538 14.911L17.7 14.386H21.127L21.126 15.783ZM21.126 14.107H17.783L19.265 9.19995L21.126 10.274V14.107ZM21.126 9.94995L19.348 8.92395L20.141 6.29895L21.126 7.28395V9.94995ZM21.126 6.88595L20.233 5.99295L20.31 5.73695L21.126 5.95595V6.88595ZM21.126 5.66495L20.392 5.46495L21.126 3.03295V5.66495ZM27.435 13.586L25.193 12.292L25.393 11.545L27.435 13.586ZM25.248 11.002L24.419 10.173L26.078 7.90695L25.248 11.002ZM23.957 16.902L24.941 16.334L25.164 17.165L23.419 18.91L23.957 16.902ZM23.057 19.167L21.545 18.294L23.611 17.101L23.057 19.167ZM23.417 9.56695L24.048 10.198L23.71 10.66L23.417 9.56695ZM23.611 11.376L23.556 11.344L23.59 11.298L23.611 11.376ZM23.374 9.12695L25.9 7.67595L24.218 9.97595L23.374 9.12695ZM23.5 10.956L23.315 11.209L21.547 10.186L23.059 9.31295L23.5 10.956ZM23.392 11.578L23.717 11.765L24.343 14.102H21.543L23.392 11.578ZM24.648 15.242L24.867 16.058L24.061 16.523L24.388 15.303L24.648 15.242ZM24.47 14.995L24.526 14.786L24.575 14.97L24.47 14.995ZM25.118 15.912L24.918 15.178L27.392 14.598L25.118 15.912ZM24.848 14.906L24.708 14.384H27.075L24.848 14.906ZM24.525 13.701L24.06 11.964L24.866 12.429L24.525 13.701ZM23.957 11.581L23.805 11.013L24.251 10.404L25.164 11.317L24.941 12.148L23.957 11.581ZM26.043 7.26895L23.236 8.88595L22.551 6.32995L26.043 7.26895ZM21.407 3.14695L22.154 5.93595L21.407 5.73595V3.14695ZM21.407 6.02695L22.238 6.24995L22.877 8.63295L21.407 7.16295V6.02695ZM21.407 7.55995L22.919 9.07195L21.407 9.94495V7.55995ZM21.407 10.432L23.147 11.432L21.407 13.809V10.432ZM21.407 14.384H24.343L24.16 15.068L21.408 15.714L21.407 14.384ZM21.407 16.002L24.077 15.376L23.716 16.722L21.407 18.055V16.002ZM21.407 18.541L22.919 19.414L21.719 20.614L21.407 20.58V18.541ZM22.877 19.854L22.646 20.715L22.077 20.653L22.877 19.854ZM21.407 20.863L21.464 20.869L21.407 20.926V20.863ZM21.407 25.34V22.751L22.154 22.551L21.407 25.34ZM22.238 22.24L21.407 22.463V21.324L21.822 20.909L22.572 20.99L22.238 22.24ZM22.551 22.156L22.851 21.023L25.642 21.323L22.551 22.156ZM22.928 20.749L23.236 19.6L25.759 21.057L22.928 20.749ZM26.183 20.977L23.376 19.356L25.248 17.486L26.183 20.977ZM25.393 16.942L25.193 16.195L27.435 14.901L25.393 16.942ZM24.708 14.105L25.118 12.577L27.765 14.105H24.708Z" fill="#14144B"/>
<path d="M26.0544 38.3289C24.8146 37.7042 23.7735 36.7459 23.0484 35.5619C22.34 34.3417 21.9668 32.9559 21.9668 31.5449C21.9668 30.134 22.34 28.7481 23.0484 27.5279C23.7737 26.344 24.8146 25.3858 26.0544 24.7609C27.3987 24.0808 28.8881 23.7376 30.3944 23.7609C31.8478 23.7283 33.2848 24.0728 34.5654 24.7609C35.7263 25.394 36.6417 26.3978 37.1654 27.6119L33.7654 29.4379C33.4546 28.8043 32.9698 28.2723 32.3677 27.9041C31.7656 27.5359 31.0711 27.3468 30.3654 27.3589C29.8409 27.3428 29.3186 27.4342 28.8307 27.6275C28.3428 27.8208 27.8996 28.1119 27.5284 28.4829C26.8028 29.3382 26.4045 30.4233 26.4045 31.5449C26.4045 32.6665 26.8028 33.7517 27.5284 34.6069C27.8995 34.978 28.3427 35.2692 28.8306 35.4625C29.3185 35.6558 29.8409 35.7471 30.3654 35.7309C31.072 35.7478 31.7685 35.5607 32.3715 35.192C32.9745 34.8233 33.4585 34.2886 33.7654 33.6519L37.1654 35.5059C36.6266 36.6996 35.714 37.6856 34.5654 38.3149C33.2875 39.011 31.8493 39.3596 30.3944 39.3259C28.8883 39.3504 27.3988 39.0083 26.0544 38.3289Z" fill="#14144B"/>
<path d="M39.6352 21.1839C39.396 20.9613 39.2052 20.6918 39.0747 20.3921C38.9443 20.0925 38.877 19.7692 38.877 19.4424C38.877 19.1156 38.9443 18.7923 39.0747 18.4927C39.2052 18.1931 39.396 17.9236 39.6352 17.7009C40.1748 17.2212 40.8798 16.9702 41.6012 17.0009C42.318 16.9701 43.0201 17.2108 43.5672 17.6749C43.8102 17.8823 44.0042 18.141 44.1353 18.4324C44.2663 18.7237 44.3312 19.0405 44.3252 19.3599C44.3347 19.6985 44.272 20.0351 44.1413 20.3475C44.0106 20.66 43.8149 20.941 43.5672 21.1719C43.0319 21.6604 42.3253 21.9177 41.6012 21.8879C40.8793 21.9178 40.1741 21.6652 39.6352 21.1839ZM39.4102 23.9929H43.7922V39.1049H39.4102V23.9929Z" fill="#14144B"/>
<path d="M57.336 38.3709C56.8587 38.7106 56.3196 38.9538 55.749 39.0869C55.1015 39.2485 54.4364 39.3287 53.769 39.3259C52.2532 39.4229 50.7586 38.9298 49.598 37.9499C49.0811 37.4176 48.6824 36.7821 48.4282 36.085C48.174 35.3879 48.07 34.645 48.123 33.9049V27.6919H45.791V24.3209H48.123V20.6409H52.505V24.3209H56.269V27.6919H52.505V33.8439C52.4702 34.3809 52.6468 34.9103 52.997 35.3189C53.1793 35.4985 53.3974 35.6376 53.6371 35.7272C53.8767 35.8168 54.1326 35.8548 54.388 35.8389C55.0246 35.8571 55.6485 35.659 56.158 35.2769L57.336 38.3709Z" fill="#14144B"/>
<path d="M59.7465 21.1839C59.5073 20.9613 59.3165 20.6918 59.1861 20.3921C59.0556 20.0925 58.9883 19.7692 58.9883 19.4424C58.9883 19.1156 59.0556 18.7923 59.1861 18.4927C59.3165 18.1931 59.5073 17.9236 59.7465 17.7009C60.2861 17.2211 60.9912 16.9701 61.7125 17.0009C62.4293 16.9701 63.1314 17.2108 63.6785 17.6749C63.9215 17.8823 64.1155 18.141 64.2466 18.4324C64.3777 18.7237 64.4425 19.0405 64.4365 19.3599C64.446 19.6985 64.3833 20.0351 64.2526 20.3475C64.1219 20.66 63.9262 20.941 63.6785 21.1719C63.1432 21.6605 62.4366 21.9178 61.7125 21.8879C60.9906 21.9179 60.2854 21.6653 59.7465 21.1839ZM59.5225 23.9839H63.9045V39.0959H59.5225V23.9839Z" fill="#14144B"/>
<path d="M82.4173 32.7809H70.9843C71.1665 33.6814 71.69 34.4766 72.4453 34.9999C73.2907 35.5662 74.2933 35.8514 75.3102 35.8149C76.0236 35.8276 76.7331 35.7086 77.4033 35.4639C78.039 35.2123 78.6172 34.8347 79.1032 34.3539L81.4343 36.8819C80.64 37.7248 79.6688 38.3811 78.5906 38.8037C77.5123 39.2263 76.3537 39.4046 75.1982 39.3259C73.6329 39.3562 72.0828 39.0135 70.6762 38.3259C69.4212 37.7125 68.3683 36.7523 67.6422 35.5589C66.9213 34.3446 66.5519 32.9539 66.5753 31.5419C66.5562 30.1376 66.9202 28.7547 67.6283 27.5419C68.3173 26.3655 69.3186 25.4029 70.5212 24.7609C71.7773 24.1128 73.1689 23.7711 74.5822 23.7638C75.9956 23.7565 77.3906 24.0838 78.6533 24.7189C79.8375 25.3422 80.8174 26.293 81.4763 27.4579C82.179 28.7236 82.5328 30.1534 82.5013 31.6009C82.5013 31.6569 82.4733 32.0502 82.4173 32.7809ZM72.1643 27.9209C71.478 28.5051 71.0368 29.3262 70.9283 30.2209H78.3723C78.2577 29.3312 77.8173 28.5157 77.1363 27.9319C76.4441 27.3547 75.5651 27.0499 74.6643 27.0749C73.756 27.0473 72.8683 27.3484 72.1643 27.9229V27.9209Z" fill="#14144B"/>
<path d="M86.5447 38.862C85.533 38.6306 84.5654 38.2368 83.6797 37.696L85.1407 34.55C85.8999 35.0179 86.7232 35.3726 87.5847 35.603C88.4976 35.8684 89.443 36.0054 90.3937 36.01C92.2477 36.01 93.1747 35.5513 93.1747 34.634C93.1697 34.4171 93.0923 34.2081 92.955 34.0402C92.8177 33.8723 92.6282 33.755 92.4167 33.707C91.6588 33.4657 90.8774 33.3055 90.0857 33.229C89.0512 33.0853 88.0281 32.8694 87.0237 32.583C86.2247 32.3437 85.5027 31.8981 84.9307 31.291C84.3008 30.5612 83.9829 29.613 84.0457 28.651C84.033 27.7352 84.3245 26.8411 84.8747 26.109C85.5001 25.3157 86.3379 24.7164 87.2907 24.381C88.4917 23.9446 89.7632 23.7351 91.0407 23.763C92.113 23.7635 93.182 23.8812 94.2287 24.114C95.1495 24.2969 96.0358 24.624 96.8547 25.083L95.3937 28.201C94.0656 27.4523 92.5644 27.0647 91.0397 27.077C90.3158 27.0335 89.5923 27.1684 88.9327 27.47C88.7328 27.5556 88.5611 27.696 88.4373 27.8748C88.3134 28.0536 88.2426 28.2637 88.2327 28.481C88.2299 28.7064 88.3033 28.9261 88.4411 29.1046C88.5789 29.283 88.7729 29.4097 88.9917 29.464C89.7789 29.716 90.5877 29.8948 91.4077 29.998C92.4313 30.1572 93.4445 30.3776 94.4417 30.658C95.2279 30.8918 95.9364 31.3333 96.4927 31.936C97.1079 32.6513 97.4203 33.5782 97.3637 34.52C97.3743 35.4248 97.077 36.3063 96.5207 37.02C95.8784 37.8074 95.0262 38.3969 94.0627 38.72C92.8306 39.1465 91.5322 39.3497 90.2287 39.32C88.9863 39.3238 87.7484 39.1699 86.5447 38.862Z" fill="#14144B"/>
<path d="M111.265 25.4349C111.926 26.0883 112.437 26.8778 112.762 27.7485C113.087 28.6192 113.218 29.5503 113.147 30.4769V39.1009H109.047V37.2229C108.223 38.6276 106.687 39.3299 104.44 39.3299C103.402 39.3548 102.372 39.1534 101.42 38.7399C100.626 38.3958 99.9486 37.8303 99.468 37.1109C99.0158 36.4082 98.7813 35.5875 98.794 34.7519C98.769 34.112 98.9005 33.4756 99.1771 32.8979C99.4536 32.3203 99.8668 31.8188 100.381 31.4369C101.844 30.522 103.561 30.0987 105.281 30.2289H108.764C108.789 29.82 108.724 29.4105 108.574 29.0295C108.423 28.6484 108.191 28.3051 107.893 28.0239C107.146 27.4554 106.217 27.1804 105.281 27.2509C104.475 27.2509 103.673 27.3788 102.907 27.6299C102.191 27.8507 101.521 28.1979 100.927 28.6549L99.354 25.5929C100.257 24.9766 101.259 24.5206 102.317 24.2449C103.475 23.926 104.67 23.7656 105.871 23.7679C107.813 23.6371 109.735 24.231 111.265 25.4349ZM107.529 35.8559C108.11 35.5088 108.548 34.966 108.765 34.3249V32.7799H105.76C103.96 32.7799 103.06 33.3699 103.06 34.5499C103.052 34.8095 103.107 35.0671 103.222 35.2998C103.338 35.5325 103.509 35.7332 103.72 35.8839C104.255 36.2395 104.891 36.4121 105.532 36.3759C106.233 36.3896 106.924 36.2101 107.529 35.8569V35.8559Z" fill="#14144B"/>
<path d="M129.592 24.7329C130.734 25.3689 131.673 26.3132 132.303 27.4579C132.949 28.7234 133.286 30.124 133.286 31.5449C133.286 32.9658 132.949 34.3665 132.303 35.6319C131.673 36.7768 130.734 37.7211 129.592 38.3569C128.42 39.0082 127.099 39.3422 125.758 39.3259C124.869 39.3841 123.979 39.237 123.156 38.8961C122.332 38.5552 121.599 38.0296 121.011 37.3599V39.1019H116.826V18.2579H121.208V25.5889C121.789 24.9726 122.497 24.4901 123.283 24.1748C124.068 23.8594 124.914 23.7189 125.759 23.7629C127.099 23.7471 128.421 24.0815 129.592 24.7329ZM127.766 34.5929C128.467 33.7309 128.85 32.6539 128.85 31.5429C128.85 30.432 128.467 29.3549 127.766 28.4929C127.03 27.7642 126.035 27.3554 124.999 27.3554C123.963 27.3554 122.969 27.7642 122.232 28.4929C121.531 29.3549 121.149 30.432 121.149 31.5429C121.149 32.6539 121.531 33.7309 122.232 34.5929C122.969 35.3217 123.963 35.7305 124.999 35.7305C126.035 35.7305 127.03 35.3217 127.766 34.5929Z" fill="#14144B"/>
<path d="M138.89 38.3289C137.651 37.7042 136.61 36.7459 135.884 35.5619C135.176 34.3417 134.803 32.9559 134.803 31.5449C134.803 30.134 135.176 28.7481 135.884 27.5279C136.61 26.344 137.651 25.3858 138.89 24.7609C140.235 24.0807 141.724 23.7375 143.23 23.7609C144.684 23.7283 146.121 24.0728 147.401 24.7609C148.562 25.394 149.478 26.3977 150.001 27.6119L146.601 29.4379C146.291 28.8042 145.806 28.2721 145.204 27.9039C144.602 27.5357 143.907 27.3467 143.201 27.3589C142.677 27.3429 142.155 27.4343 141.667 27.6276C141.179 27.8209 140.736 28.112 140.364 28.4829C139.639 29.3383 139.241 30.4234 139.241 31.5449C139.241 32.6664 139.639 33.7516 140.364 34.6069C140.735 34.978 141.179 35.2692 141.667 35.4625C142.154 35.6558 142.677 35.7471 143.201 35.7309C143.908 35.7479 144.605 35.5609 145.208 35.1921C145.811 34.8234 146.295 34.2887 146.601 33.6519L150.001 35.5059C149.463 36.6996 148.55 37.6856 147.401 38.3149C146.123 39.011 144.685 39.3596 143.23 39.3259C141.724 39.3504 140.235 39.0083 138.89 38.3289Z" fill="#14144B"/>
<path d="M124.221 42.563C124.843 42.5554 125.457 42.7109 126 43.014C126.526 43.3086 126.96 43.7452 127.25 44.274C127.562 44.8537 127.719 45.5045 127.705 46.163C127.72 46.8221 127.563 47.4737 127.25 48.054C126.96 48.5842 126.527 49.0223 126 49.318C125.456 49.6189 124.843 49.7723 124.221 49.763C123.809 49.7903 123.396 49.7224 123.015 49.5646C122.633 49.4068 122.293 49.1633 122.021 48.853V49.663H120.084V40.017H122.112V43.41C122.381 43.124 122.709 42.9 123.073 42.7538C123.437 42.6075 123.829 42.5424 124.221 42.563ZM123.87 48.103C124.109 48.1107 124.346 48.0677 124.567 47.9768C124.788 47.886 124.987 47.7494 125.151 47.576C125.497 47.1904 125.677 46.6835 125.651 46.166C125.677 45.6484 125.497 45.1415 125.151 44.756C124.987 44.5826 124.788 44.4459 124.567 44.3551C124.346 44.2643 124.109 44.2213 123.87 44.229C123.631 44.2213 123.394 44.2643 123.173 44.3551C122.952 44.4459 122.753 44.5826 122.589 44.756C122.243 45.1415 122.063 45.6484 122.089 46.166C122.063 46.6835 122.243 47.1904 122.589 47.576C122.753 47.7494 122.952 47.886 123.173 47.9768C123.394 48.0677 123.631 48.1107 123.87 48.103ZM135.908 46.192C135.908 46.218 135.895 46.4 135.869 46.738H130.578C130.663 47.154 130.905 47.5211 131.254 47.763C131.645 48.025 132.109 48.1569 132.58 48.14C132.91 48.1457 133.239 48.0904 133.549 47.977C133.843 47.8607 134.11 47.6862 134.335 47.464L135.414 48.634C135.046 49.0237 134.597 49.3271 134.098 49.5223C133.599 49.7175 133.063 49.7997 132.528 49.763C131.804 49.7776 131.086 49.6195 130.435 49.302C129.856 49.0173 129.37 48.5728 129.035 48.021C128.7 47.4597 128.528 46.8165 128.537 46.163C128.528 45.5125 128.696 44.8718 129.024 44.31C129.343 43.7655 129.806 43.32 130.363 43.023C130.947 42.7117 131.601 42.5532 132.263 42.562C132.91 42.5529 133.549 42.7048 134.122 43.004C134.67 43.2922 135.123 43.7321 135.428 44.271C135.756 44.8573 135.922 45.5204 135.908 46.192ZM132.281 44.099C131.861 44.0856 131.45 44.224 131.124 44.489C130.806 44.7597 130.602 45.1403 130.552 45.555H134C133.947 45.1433 133.743 44.766 133.428 44.496C133.107 44.2278 132.699 44.0866 132.281 44.099ZM141.771 49.325C141.55 49.4821 141.3 49.5945 141.036 49.656C140.736 49.7296 140.429 49.7655 140.12 49.763C139.419 49.8088 138.728 49.582 138.19 49.13C137.951 48.8842 137.767 48.5909 137.65 48.2692C137.532 47.9476 137.483 47.6047 137.507 47.263V44.385H136.428V42.825H137.507V41.125H139.535V42.825H141.277V44.385H139.535V47.232C139.519 47.4805 139.6 47.7256 139.762 47.915C139.846 47.9981 139.947 48.0626 140.058 48.1041C140.169 48.1456 140.288 48.1633 140.406 48.156C140.701 48.1646 140.989 48.073 141.225 47.896L141.771 49.325ZM145.736 42.563C146.636 42.5018 147.527 42.7773 148.236 43.336C148.541 43.6392 148.776 44.0052 148.926 44.4087C149.075 44.8121 149.134 45.2432 149.1 45.672V49.663H147.2V48.792C146.968 49.1324 146.647 49.4028 146.272 49.5739C145.897 49.7451 145.482 49.8104 145.073 49.763C144.592 49.7748 144.114 49.6817 143.673 49.49C143.307 49.3301 142.995 49.0684 142.773 48.736C142.564 48.4119 142.455 48.0335 142.46 47.648C142.448 47.3519 142.509 47.0574 142.637 46.7901C142.765 46.5228 142.956 46.2907 143.194 46.114C143.871 45.6903 144.666 45.4944 145.463 45.555H147.075C147.087 45.366 147.058 45.1767 146.988 45.0005C146.919 44.8242 146.812 44.6653 146.675 44.535C146.329 44.2717 145.899 44.1443 145.466 44.177C145.092 44.177 144.721 44.2365 144.366 44.353C144.034 44.455 143.724 44.6155 143.449 44.827L142.72 43.41C143.138 43.1245 143.602 42.9134 144.092 42.786C144.627 42.6376 145.18 42.5626 145.736 42.563ZM145.58 48.402C145.903 48.4079 146.221 48.3252 146.5 48.163C146.769 48.0023 146.972 47.7509 147.072 47.454V46.739H145.684C144.852 46.739 144.436 47.012 144.436 47.558C144.432 47.6781 144.458 47.7972 144.512 47.9049C144.565 48.0125 144.644 48.1053 144.742 48.175C144.99 48.3391 145.283 48.4187 145.58 48.402Z" fill="#14144B"/>
</svg>
