<svg width="33" height="32" viewBox="0 0 33 32" fill="none" xmlns="http://www.w3.org/2000/svg">
<path fill-rule="evenodd" clip-rule="evenodd" d="M24.585 11.2285C23.9635 11.4964 23.2885 11.6893 22.5921 11.7643C23.31 11.3357 23.8564 10.6607 24.1135 9.85712C23.4492 10.2535 22.6992 10.5428 21.9171 10.6928C21.2849 10.0178 20.3849 9.59998 19.3885 9.59998C17.4707 9.59998 15.9278 11.1535 15.9278 13.0607C15.9278 13.3286 15.9599 13.5964 16.0135 13.8536C13.1421 13.7036 10.5814 12.3321 8.87779 10.2321C8.57779 10.7464 8.40636 11.3357 8.40636 11.9785C8.40636 13.1786 9.01708 14.2393 9.94922 14.8607C9.38136 14.8393 8.84565 14.6786 8.38493 14.4214V14.4643C8.38493 16.1464 9.57422 17.5393 11.1599 17.8607C10.8707 17.9357 10.5599 17.9786 10.2492 17.9786C10.0242 17.9786 9.80994 17.9571 9.59565 17.925C10.0349 19.2964 11.3099 20.2928 12.8314 20.325C11.6421 21.2571 10.1528 21.8036 8.53493 21.8036C8.24565 21.8036 7.97779 21.7928 7.69922 21.7607C9.23136 22.7464 11.0528 23.3143 13.0135 23.3143C19.3778 23.3143 22.86 18.0428 22.86 13.4678C22.86 13.3178 22.86 13.1678 22.8492 13.0178C23.5242 12.525 24.1135 11.9143 24.585 11.2285Z" fill="#A6A6A6"/>
</svg>
