<svg width="33" height="32" viewBox="0 0 33 32" fill="none" xmlns="http://www.w3.org/2000/svg">
<path fill-rule="evenodd" clip-rule="evenodd" d="M24.3252 9.42831C25.1819 9.65902 25.8574 10.3344 26.0879 11.1912C26.5164 12.7561 26.4999 16.0181 26.4999 16.0181C26.4999 16.0181 26.4999 19.2635 26.0881 20.8286C25.8574 21.6852 25.182 22.3607 24.3252 22.5912C22.7602 23.0032 16.5 23.0032 16.5 23.0032C16.5 23.0032 10.2561 23.0032 8.67467 22.5749C7.8179 22.3442 7.14254 21.6687 6.91183 20.8121C6.5 19.2635 6.5 16.0016 6.5 16.0016C6.5 16.0016 6.5 12.7561 6.91183 11.1912C7.14239 10.3345 7.83438 9.64254 8.67452 9.41199C10.2396 9 16.4998 9 16.4998 9C16.4998 9 22.7602 9 24.3252 9.42831ZM19.7119 16.0015L14.5061 18.9999V13.0032L19.7119 16.0015Z" fill="#A6A6A6"/>
</svg>
